<svg xmlns="http://www.w3.org/2000/svg" viewBox="0 0 100 100">
  <defs>
    <linearGradient id="capyGrad" x1="0%" y1="0%" x2="100%" y2="100%">
      <stop offset="0%" stop-color="#D97706" />
      <stop offset="100%" stop-color="#92400E" />
    </linearGradient>
    <linearGradient id="orangeGrad" x1="0%" y1="0%" x2="100%" y2="100%">
      <stop offset="0%" stop-color="#FB923C" />
      <stop offset="100%" stop-color="#EA580C" />
    </linearGradient>
  </defs>
  <rect width="100" height="100" rx="28" fill="#FEF3C7" />
  <!-- Capybara Head -->
  <rect x="22" y="32" width="56" height="46" rx="20" fill="url(#capyGrad)" />
  <!-- Capybara Snout -->
  <rect x="20" y="48" width="60" height="30" rx="14" fill="#B45309" />
  <!-- Nostrils -->
  <ellipse cx="44" cy="62" rx="3.5" ry="4.5" fill="#451A03" />
  <ellipse cx="56" cy="62" rx="3.5" ry="4.5" fill="#451A03" />
  <!-- Eyes -->
  <ellipse cx="33" cy="45" rx="3.5" ry="2" fill="#1F2937" />
  <ellipse cx="67" cy="45" rx="3.5" ry="2" fill="#1F2937" />
  <!-- Ears -->
  <circle cx="23" cy="33" r="6" fill="#78350F" />
  <circle cx="77" cy="33" r="6" fill="#78350F" />
  <!-- Orange on head -->
  <circle cx="50" cy="23" r="11" fill="url(#orangeGrad)" />
  <path d="M50 12 Q54 8 57 11 Q54 14 50 12" fill="#16A34A" />
  <!-- Cheerful Sparkle -->
  <path d="M82 18 L84 13 L89 15 L85 19 L87 24 L82 21 L78 24 L79 19 L75 15 L80 13 Z" fill="#FBBF24" />
</svg>